<svg xmlns="http://www.w3.org/2000/svg" viewBox="0 0 400 400" width="400" height="400">
<defs>
  <linearGradient id="gold" x1="0" y1="0" x2="1" y2="1">
    <stop offset="0" style="stop-color:var(--g1)"/>
    <stop offset="1" style="stop-color:var(--g2)"/>
  </linearGradient>
</defs>
<circle cx="200" cy="200" r="190" fill="none" stroke="url(#gold)" width="1.5"/><circle cx="200" cy="200" r="184" fill="none" stroke="url(#gold)" width="0.8" dasharray="2 6"/><circle cx="376.0" cy="200.0" r="2.2" fill="url(#gold)" stroke="url(#gold)" width="1"/><circle cx="374.5" cy="223.0" r="2.2" fill="none" stroke="url(#gold)" width="1"/><circle cx="370.0" cy="245.6" r="2.2" fill="url(#gold)" stroke="url(#gold)" width="1"/><circle cx="362.6" cy="267.4" r="2.2" fill="none" stroke="url(#gold)" width="1"/><circle cx="352.4" cy="288.0" r="2.2" fill="url(#gold)" stroke="url(#gold)" width="1"/><circle cx="339.6" cy="307.1" r="2.2" fill="none" stroke="url(#gold)" width="1"/><circle cx="324.5" cy="324.5" r="2.2" fill="url(#gold)" stroke="url(#gold)" width="1"/><circle cx="307.1" cy="339.6" r="2.2" fill="none" stroke="url(#gold)" width="1"/><circle cx="288.0" cy="352.4" r="2.2" fill="url(#gold)" stroke="url(#gold)" width="1"/><circle cx="267.4" cy="362.6" r="2.2" fill="none" stroke="url(#gold)" width="1"/><circle cx="245.6" cy="370.0" r="2.2" fill="url(#gold)" stroke="url(#gold)" width="1"/><circle cx="223.0" cy="374.5" r="2.2" fill="none" stroke="url(#gold)" width="1"/><circle cx="200.0" cy="376.0" r="2.2" fill="url(#gold)" stroke="url(#gold)" width="1"/><circle cx="177.0" cy="374.5" r="2.2" fill="none" stroke="url(#gold)" width="1"/><circle cx="154.4" cy="370.0" r="2.2" fill="url(#gold)" stroke="url(#gold)" width="1"/><circle cx="132.6" cy="362.6" r="2.2" fill="none" stroke="url(#gold)" width="1"/><circle cx="112.0" cy="352.4" r="2.2" fill="url(#gold)" stroke="url(#gold)" width="1"/><circle cx="92.9" cy="339.6" r="2.2" fill="none" stroke="url(#gold)" width="1"/><circle cx="75.5" cy="324.5" r="2.2" fill="url(#gold)" stroke="url(#gold)" width="1"/><circle cx="60.4" cy="307.1" r="2.2" fill="none" stroke="url(#gold)" width="1"/><circle cx="47.6" cy="288.0" r="2.2" fill="url(#gold)" stroke="url(#gold)" width="1"/><circle cx="37.4" cy="267.4" r="2.2" fill="none" stroke="url(#gold)" width="1"/><circle cx="30.0" cy="245.6" r="2.2" fill="url(#gold)" stroke="url(#gold)" width="1"/><circle cx="25.5" cy="223.0" r="2.2" fill="none" stroke="url(#gold)" width="1"/><circle cx="24.0" cy="200.0" r="2.2" fill="url(#gold)" stroke="url(#gold)" width="1"/><circle cx="25.5" cy="177.0" r="2.2" fill="none" stroke="url(#gold)" width="1"/><circle cx="30.0" cy="154.4" r="2.2" fill="url(#gold)" stroke="url(#gold)" width="1"/><circle cx="37.4" cy="132.6" r="2.2" fill="none" stroke="url(#gold)" width="1"/><circle cx="47.6" cy="112.0" r="2.2" fill="url(#gold)" stroke="url(#gold)" width="1"/><circle cx="60.4" cy="92.9" r="2.2" fill="none" stroke="url(#gold)" width="1"/><circle cx="75.5" cy="75.5" r="2.2" fill="url(#gold)" stroke="url(#gold)" width="1"/><circle cx="92.9" cy="60.4" r="2.2" fill="none" stroke="url(#gold)" width="1"/><circle cx="112.0" cy="47.6" r="2.2" fill="url(#gold)" stroke="url(#gold)" width="1"/><circle cx="132.6" cy="37.4" r="2.2" fill="none" stroke="url(#gold)" width="1"/><circle cx="154.4" cy="30.0" r="2.2" fill="url(#gold)" stroke="url(#gold)" width="1"/><circle cx="177.0" cy="25.5" r="2.2" fill="none" stroke="url(#gold)" width="1"/><circle cx="200.0" cy="24.0" r="2.2" fill="url(#gold)" stroke="url(#gold)" width="1"/><circle cx="223.0" cy="25.5" r="2.2" fill="none" stroke="url(#gold)" width="1"/><circle cx="245.6" cy="30.0" r="2.2" fill="url(#gold)" stroke="url(#gold)" width="1"/><circle cx="267.4" cy="37.4" r="2.2" fill="none" stroke="url(#gold)" width="1"/><circle cx="288.0" cy="47.6" r="2.2" fill="url(#gold)" stroke="url(#gold)" width="1"/><circle cx="307.1" cy="60.4" r="2.2" fill="none" stroke="url(#gold)" width="1"/><circle cx="324.5" cy="75.5" r="2.2" fill="url(#gold)" stroke="url(#gold)" width="1"/><circle cx="339.6" cy="92.9" r="2.2" fill="none" stroke="url(#gold)" width="1"/><circle cx="352.4" cy="112.0" r="2.2" fill="url(#gold)" stroke="url(#gold)" width="1"/><circle cx="362.6" cy="132.6" r="2.2" fill="none" stroke="url(#gold)" width="1"/><circle cx="370.0" cy="154.4" r="2.2" fill="url(#gold)" stroke="url(#gold)" width="1"/><circle cx="374.5" cy="177.0" r="2.2" fill="none" stroke="url(#gold)" width="1"/><circle cx="200" cy="200" r="168" fill="none" stroke="url(#gold)" width="1.2"/><line x1="368.0" y1="200.0" x2="378.0" y2="200.0" stroke="url(#gold)" width="0.8"/><line x1="367.4" y1="214.6" x2="377.3" y2="215.5" stroke="url(#gold)" width="0.8"/><line x1="365.4" y1="229.2" x2="375.3" y2="230.9" stroke="url(#gold)" width="0.8"/><line x1="362.3" y1="243.5" x2="371.9" y2="246.1" stroke="url(#gold)" width="0.8"/><line x1="357.9" y1="257.5" x2="367.3" y2="260.9" stroke="url(#gold)" width="0.8"/><line x1="352.3" y1="271.0" x2="361.3" y2="275.2" stroke="url(#gold)" width="0.8"/><line x1="345.5" y1="284.0" x2="354.2" y2="289.0" stroke="url(#gold)" width="0.8"/><line x1="337.6" y1="296.4" x2="345.8" y2="302.1" stroke="url(#gold)" width="0.8"/><line x1="328.7" y1="308.0" x2="336.4" y2="314.4" stroke="url(#gold)" width="0.8"/><line x1="318.8" y1="318.8" x2="325.9" y2="325.9" stroke="url(#gold)" width="0.8"/><line x1="308.0" y1="328.7" x2="314.4" y2="336.4" stroke="url(#gold)" width="0.8"/><line x1="296.4" y1="337.6" x2="302.1" y2="345.8" stroke="url(#gold)" width="0.8"/><line x1="284.0" y1="345.5" x2="289.0" y2="354.2" stroke="url(#gold)" width="0.8"/><line x1="271.0" y1="352.3" x2="275.2" y2="361.3" stroke="url(#gold)" width="0.8"/><line x1="257.5" y1="357.9" x2="260.9" y2="367.3" stroke="url(#gold)" width="0.8"/><line x1="243.5" y1="362.3" x2="246.1" y2="371.9" stroke="url(#gold)" width="0.8"/><line x1="229.2" y1="365.4" x2="230.9" y2="375.3" stroke="url(#gold)" width="0.8"/><line x1="214.6" y1="367.4" x2="215.5" y2="377.3" stroke="url(#gold)" width="0.8"/><line x1="200.0" y1="368.0" x2="200.0" y2="378.0" stroke="url(#gold)" width="0.8"/><line x1="185.4" y1="367.4" x2="184.5" y2="377.3" stroke="url(#gold)" width="0.8"/><line x1="170.8" y1="365.4" x2="169.1" y2="375.3" stroke="url(#gold)" width="0.8"/><line x1="156.5" y1="362.3" x2="153.9" y2="371.9" stroke="url(#gold)" width="0.8"/><line x1="142.5" y1="357.9" x2="139.1" y2="367.3" stroke="url(#gold)" width="0.8"/><line x1="129.0" y1="352.3" x2="124.8" y2="361.3" stroke="url(#gold)" width="0.8"/><line x1="116.0" y1="345.5" x2="111.0" y2="354.2" stroke="url(#gold)" width="0.8"/><line x1="103.6" y1="337.6" x2="97.9" y2="345.8" stroke="url(#gold)" width="0.8"/><line x1="92.0" y1="328.7" x2="85.6" y2="336.4" stroke="url(#gold)" width="0.8"/><line x1="81.2" y1="318.8" x2="74.1" y2="325.9" stroke="url(#gold)" width="0.8"/><line x1="71.3" y1="308.0" x2="63.6" y2="314.4" stroke="url(#gold)" width="0.8"/><line x1="62.4" y1="296.4" x2="54.2" y2="302.1" stroke="url(#gold)" width="0.8"/><line x1="54.5" y1="284.0" x2="45.8" y2="289.0" stroke="url(#gold)" width="0.8"/><line x1="47.7" y1="271.0" x2="38.7" y2="275.2" stroke="url(#gold)" width="0.8"/><line x1="42.1" y1="257.5" x2="32.7" y2="260.9" stroke="url(#gold)" width="0.8"/><line x1="37.7" y1="243.5" x2="28.1" y2="246.1" stroke="url(#gold)" width="0.8"/><line x1="34.6" y1="229.2" x2="24.7" y2="230.9" stroke="url(#gold)" width="0.8"/><line x1="32.6" y1="214.6" x2="22.7" y2="215.5" stroke="url(#gold)" width="0.8"/><line x1="32.0" y1="200.0" x2="22.0" y2="200.0" stroke="url(#gold)" width="0.8"/><line x1="32.6" y1="185.4" x2="22.7" y2="184.5" stroke="url(#gold)" width="0.8"/><line x1="34.6" y1="170.8" x2="24.7" y2="169.1" stroke="url(#gold)" width="0.8"/><line x1="37.7" y1="156.5" x2="28.1" y2="153.9" stroke="url(#gold)" width="0.8"/><line x1="42.1" y1="142.5" x2="32.7" y2="139.1" stroke="url(#gold)" width="0.8"/><line x1="47.7" y1="129.0" x2="38.7" y2="124.8" stroke="url(#gold)" width="0.8"/><line x1="54.5" y1="116.0" x2="45.8" y2="111.0" stroke="url(#gold)" width="0.8"/><line x1="62.4" y1="103.6" x2="54.2" y2="97.9" stroke="url(#gold)" width="0.8"/><line x1="71.3" y1="92.0" x2="63.6" y2="85.6" stroke="url(#gold)" width="0.8"/><line x1="81.2" y1="81.2" x2="74.1" y2="74.1" stroke="url(#gold)" width="0.8"/><line x1="92.0" y1="71.3" x2="85.6" y2="63.6" stroke="url(#gold)" width="0.8"/><line x1="103.6" y1="62.4" x2="97.9" y2="54.2" stroke="url(#gold)" width="0.8"/><line x1="116.0" y1="54.5" x2="111.0" y2="45.8" stroke="url(#gold)" width="0.8"/><line x1="129.0" y1="47.7" x2="124.8" y2="38.7" stroke="url(#gold)" width="0.8"/><line x1="142.5" y1="42.1" x2="139.1" y2="32.7" stroke="url(#gold)" width="0.8"/><line x1="156.5" y1="37.7" x2="153.9" y2="28.1" stroke="url(#gold)" width="0.8"/><line x1="170.8" y1="34.6" x2="169.1" y2="24.7" stroke="url(#gold)" width="0.8"/><line x1="185.4" y1="32.6" x2="184.5" y2="22.7" stroke="url(#gold)" width="0.8"/><line x1="200.0" y1="32.0" x2="200.0" y2="22.0" stroke="url(#gold)" width="0.8"/><line x1="214.6" y1="32.6" x2="215.5" y2="22.7" stroke="url(#gold)" width="0.8"/><line x1="229.2" y1="34.6" x2="230.9" y2="24.7" stroke="url(#gold)" width="0.8"/><line x1="243.5" y1="37.7" x2="246.1" y2="28.1" stroke="url(#gold)" width="0.8"/><line x1="257.5" y1="42.1" x2="260.9" y2="32.7" stroke="url(#gold)" width="0.8"/><line x1="271.0" y1="47.7" x2="275.2" y2="38.7" stroke="url(#gold)" width="0.8"/><line x1="284.0" y1="54.5" x2="289.0" y2="45.8" stroke="url(#gold)" width="0.8"/><line x1="296.4" y1="62.4" x2="302.1" y2="54.2" stroke="url(#gold)" width="0.8"/><line x1="308.0" y1="71.3" x2="314.4" y2="63.6" stroke="url(#gold)" width="0.8"/><line x1="318.8" y1="81.2" x2="325.9" y2="74.1" stroke="url(#gold)" width="0.8"/><line x1="328.7" y1="92.0" x2="336.4" y2="85.6" stroke="url(#gold)" width="0.8"/><line x1="337.6" y1="103.6" x2="345.8" y2="97.9" stroke="url(#gold)" width="0.8"/><line x1="345.5" y1="116.0" x2="354.2" y2="111.0" stroke="url(#gold)" width="0.8"/><line x1="352.3" y1="129.0" x2="361.3" y2="124.8" stroke="url(#gold)" width="0.8"/><line x1="357.9" y1="142.5" x2="367.3" y2="139.1" stroke="url(#gold)" width="0.8"/><line x1="362.3" y1="156.5" x2="371.9" y2="153.9" stroke="url(#gold)" width="0.8"/><line x1="365.4" y1="170.8" x2="375.3" y2="169.1" stroke="url(#gold)" width="0.8"/><line x1="367.4" y1="185.4" x2="377.3" y2="184.5" stroke="url(#gold)" width="0.8"/><circle cx="362.0" cy="200.0" r="4.5" fill="none" stroke="url(#gold)" width="1"/><circle cx="359.5" cy="228.1" r="4.5" fill="none" stroke="url(#gold)" width="1"/><circle cx="352.2" cy="255.4" r="4.5" fill="none" stroke="url(#gold)" width="1"/><circle cx="340.3" cy="281.0" r="4.5" fill="none" stroke="url(#gold)" width="1"/><circle cx="324.1" cy="304.1" r="4.5" fill="none" stroke="url(#gold)" width="1"/><circle cx="304.1" cy="324.1" r="4.5" fill="none" stroke="url(#gold)" width="1"/><circle cx="281.0" cy="340.3" r="4.5" fill="none" stroke="url(#gold)" width="1"/><circle cx="255.4" cy="352.2" r="4.5" fill="none" stroke="url(#gold)" width="1"/><circle cx="228.1" cy="359.5" r="4.5" fill="none" stroke="url(#gold)" width="1"/><circle cx="200.0" cy="362.0" r="4.5" fill="none" stroke="url(#gold)" width="1"/><circle cx="171.9" cy="359.5" r="4.5" fill="none" stroke="url(#gold)" width="1"/><circle cx="144.6" cy="352.2" r="4.5" fill="none" stroke="url(#gold)" width="1"/><circle cx="119.0" cy="340.3" r="4.5" fill="none" stroke="url(#gold)" width="1"/><circle cx="95.9" cy="324.1" r="4.5" fill="none" stroke="url(#gold)" width="1"/><circle cx="75.9" cy="304.1" r="4.5" fill="none" stroke="url(#gold)" width="1"/><circle cx="59.7" cy="281.0" r="4.5" fill="none" stroke="url(#gold)" width="1"/><circle cx="47.8" cy="255.4" r="4.5" fill="none" stroke="url(#gold)" width="1"/><circle cx="40.5" cy="228.1" r="4.5" fill="none" stroke="url(#gold)" width="1"/><circle cx="38.0" cy="200.0" r="4.5" fill="none" stroke="url(#gold)" width="1"/><circle cx="40.5" cy="171.9" r="4.5" fill="none" stroke="url(#gold)" width="1"/><circle cx="47.8" cy="144.6" r="4.5" fill="none" stroke="url(#gold)" width="1"/><circle cx="59.7" cy="119.0" r="4.5" fill="none" stroke="url(#gold)" width="1"/><circle cx="75.9" cy="95.9" r="4.5" fill="none" stroke="url(#gold)" width="1"/><circle cx="95.9" cy="75.9" r="4.5" fill="none" stroke="url(#gold)" width="1"/><circle cx="119.0" cy="59.7" r="4.5" fill="none" stroke="url(#gold)" width="1"/><circle cx="144.6" cy="47.8" r="4.5" fill="none" stroke="url(#gold)" width="1"/><circle cx="171.9" cy="40.5" r="4.5" fill="none" stroke="url(#gold)" width="1"/><circle cx="200.0" cy="38.0" r="4.5" fill="none" stroke="url(#gold)" width="1"/><circle cx="228.1" cy="40.5" r="4.5" fill="none" stroke="url(#gold)" width="1"/><circle cx="255.4" cy="47.8" r="4.5" fill="none" stroke="url(#gold)" width="1"/><circle cx="281.0" cy="59.7" r="4.5" fill="none" stroke="url(#gold)" width="1"/><circle cx="304.1" cy="75.9" r="4.5" fill="none" stroke="url(#gold)" width="1"/><circle cx="324.1" cy="95.9" r="4.5" fill="none" stroke="url(#gold)" width="1"/><circle cx="340.3" cy="119.0" r="4.5" fill="none" stroke="url(#gold)" width="1"/><circle cx="352.2" cy="144.6" r="4.5" fill="none" stroke="url(#gold)" width="1"/><circle cx="359.5" cy="171.9" r="4.5" fill="none" stroke="url(#gold)" width="1"/><circle cx="200" cy="200" r="150" fill="none" stroke="url(#gold)" width="1"/><line x1="348.7" y1="219.6" x2="356.6" y2="220.6" stroke="url(#gold)" width="0.9"/><line x1="338.6" y1="257.4" x2="346.0" y2="260.5" stroke="url(#gold)" width="0.9"/><line x1="319.0" y1="291.3" x2="325.3" y2="296.2" stroke="url(#gold)" width="0.9"/><line x1="291.3" y1="319.0" x2="296.2" y2="325.3" stroke="url(#gold)" width="0.9"/><line x1="257.4" y1="338.6" x2="260.5" y2="346.0" stroke="url(#gold)" width="0.9"/><line x1="219.6" y1="348.7" x2="220.6" y2="356.6" stroke="url(#gold)" width="0.9"/><line x1="180.4" y1="348.7" x2="179.4" y2="356.6" stroke="url(#gold)" width="0.9"/><line x1="142.6" y1="338.6" x2="139.5" y2="346.0" stroke="url(#gold)" width="0.9"/><line x1="108.7" y1="319.0" x2="103.8" y2="325.3" stroke="url(#gold)" width="0.9"/><line x1="81.0" y1="291.3" x2="74.7" y2="296.2" stroke="url(#gold)" width="0.9"/><line x1="61.4" y1="257.4" x2="54.0" y2="260.5" stroke="url(#gold)" width="0.9"/><line x1="51.3" y1="219.6" x2="43.4" y2="220.6" stroke="url(#gold)" width="0.9"/><line x1="51.3" y1="180.4" x2="43.4" y2="179.4" stroke="url(#gold)" width="0.9"/><line x1="61.4" y1="142.6" x2="54.0" y2="139.5" stroke="url(#gold)" width="0.9"/><line x1="81.0" y1="108.7" x2="74.7" y2="103.8" stroke="url(#gold)" width="0.9"/><line x1="108.7" y1="81.0" x2="103.8" y2="74.7" stroke="url(#gold)" width="0.9"/><line x1="142.6" y1="61.4" x2="139.5" y2="54.0" stroke="url(#gold)" width="0.9"/><line x1="180.4" y1="51.3" x2="179.4" y2="43.4" stroke="url(#gold)" width="0.9"/><line x1="219.6" y1="51.3" x2="220.6" y2="43.4" stroke="url(#gold)" width="0.9"/><line x1="257.4" y1="61.4" x2="260.5" y2="54.0" stroke="url(#gold)" width="0.9"/><line x1="291.3" y1="81.0" x2="296.2" y2="74.7" stroke="url(#gold)" width="0.9"/><line x1="319.0" y1="108.7" x2="325.3" y2="103.8" stroke="url(#gold)" width="0.9"/><line x1="338.6" y1="142.6" x2="346.0" y2="139.5" stroke="url(#gold)" width="0.9"/><line x1="348.7" y1="180.4" x2="356.6" y2="179.4" stroke="url(#gold)" width="0.9"/><polygon points="394.0,193.0 390.5,204.2 397.5,204.2" fill="none" stroke="url(#gold)" width="1"/><polygon points="200.0,387.0 196.5,398.2 203.5,398.2" fill="none" stroke="url(#gold)" width="1"/><polygon points="6.0,193.0 2.5,204.2 9.5,204.2" fill="none" stroke="url(#gold)" width="1"/><polygon points="200.0,-1.0 196.5,10.2 203.5,10.2" fill="none" stroke="url(#gold)" width="1"/>
</svg>
