<svg xmlns="http://www.w3.org/2000/svg" viewBox="0 0 400 400" width="400" height="400">
  <circle cx="200" cy="200" r="190" fill="none" stroke="#8f7a4d" stroke-width="1.2"/>
  <circle cx="200" cy="200" r="155" fill="none" stroke="#8f7a4d" stroke-width="1"/>
  <line x1="355.0" y1="200.0" x2="375.0" y2="200.0" stroke="#8f7a4d" stroke-width="1"/>
  <line x1="349.7" y1="240.1" x2="369.0" y2="245.3" stroke="#8f7a4d" stroke-width="1"/>
  <line x1="334.2" y1="277.5" x2="351.6" y2="287.5" stroke="#8f7a4d" stroke-width="1"/>
  <line x1="309.6" y1="309.6" x2="323.7" y2="323.7" stroke="#8f7a4d" stroke-width="1"/>
  <line x1="277.5" y1="334.2" x2="287.5" y2="351.6" stroke="#8f7a4d" stroke-width="1"/>
  <line x1="240.1" y1="349.7" x2="245.3" y2="369.0" stroke="#8f7a4d" stroke-width="1"/>
  <line x1="200.0" y1="355.0" x2="200.0" y2="375.0" stroke="#8f7a4d" stroke-width="1"/>
  <line x1="159.9" y1="349.7" x2="154.7" y2="369.0" stroke="#8f7a4d" stroke-width="1"/>
  <line x1="122.5" y1="334.2" x2="112.5" y2="351.6" stroke="#8f7a4d" stroke-width="1"/>
  <line x1="90.4" y1="309.6" x2="76.3" y2="323.7" stroke="#8f7a4d" stroke-width="1"/>
  <line x1="65.8" y1="277.5" x2="48.4" y2="287.5" stroke="#8f7a4d" stroke-width="1"/>
  <line x1="50.3" y1="240.1" x2="31.0" y2="245.3" stroke="#8f7a4d" stroke-width="1"/>
  <line x1="45.0" y1="200.0" x2="25.0" y2="200.0" stroke="#8f7a4d" stroke-width="1"/>
  <line x1="50.3" y1="159.9" x2="31.0" y2="154.7" stroke="#8f7a4d" stroke-width="1"/>
  <line x1="65.8" y1="122.5" x2="48.4" y2="112.5" stroke="#8f7a4d" stroke-width="1"/>
  <line x1="90.4" y1="90.4" x2="76.3" y2="76.3" stroke="#8f7a4d" stroke-width="1"/>
  <line x1="122.5" y1="65.8" x2="112.5" y2="48.4" stroke="#8f7a4d" stroke-width="1"/>
  <line x1="159.9" y1="50.3" x2="154.7" y2="31.0" stroke="#8f7a4d" stroke-width="1"/>
  <line x1="200.0" y1="45.0" x2="200.0" y2="25.0" stroke="#8f7a4d" stroke-width="1"/>
  <line x1="240.1" y1="50.3" x2="245.3" y2="31.0" stroke="#8f7a4d" stroke-width="1"/>
  <line x1="277.5" y1="65.8" x2="287.5" y2="48.4" stroke="#8f7a4d" stroke-width="1"/>
  <line x1="309.6" y1="90.4" x2="323.7" y2="76.3" stroke="#8f7a4d" stroke-width="1"/>
  <line x1="334.2" y1="122.5" x2="351.6" y2="112.5" stroke="#8f7a4d" stroke-width="1"/>
  <line x1="349.7" y1="159.9" x2="369.0" y2="154.7" stroke="#8f7a4d" stroke-width="1"/>
  <line x1="200.0" y1="330.0" x2="87.4" y2="265.0" stroke="#8f7a4d" stroke-width="1.1"/>
  <line x1="87.4" y1="265.0" x2="87.4" y2="135.0" stroke="#8f7a4d" stroke-width="1.1"/>
  <line x1="87.4" y1="135.0" x2="200.0" y2="70.0" stroke="#8f7a4d" stroke-width="1.1"/>
  <line x1="200.0" y1="70.0" x2="312.6" y2="135.0" stroke="#8f7a4d" stroke-width="1.1"/>
  <line x1="312.6" y1="135.0" x2="312.6" y2="265.0" stroke="#8f7a4d" stroke-width="1.1"/>
  <line x1="312.6" y1="265.0" x2="200.0" y2="330.0" stroke="#8f7a4d" stroke-width="1.1"/>
  <circle cx="200.0" cy="330.0" r="5" fill="none" stroke="#8f7a4d" stroke-width="1"/>
  <circle cx="87.4" cy="265.0" r="5" fill="none" stroke="#8f7a4d" stroke-width="1"/>
  <circle cx="87.4" cy="135.0" r="5" fill="none" stroke="#8f7a4d" stroke-width="1"/>
  <circle cx="200.0" cy="70.0" r="5" fill="none" stroke="#8f7a4d" stroke-width="1"/>
  <circle cx="312.6" cy="135.0" r="5" fill="none" stroke="#8f7a4d" stroke-width="1"/>
  <circle cx="312.6" cy="265.0" r="5" fill="none" stroke="#8f7a4d" stroke-width="1"/>
  <circle cx="200" cy="200" r="95" fill="none" stroke="#8f7a4d" stroke-width="1"/>
  <line x1="231.0" y1="253.7" x2="169.0" y2="253.7" stroke="#8f7a4d" stroke-width="1"/>
  <line x1="169.0" y1="253.7" x2="138.0" y2="200.0" stroke="#8f7a4d" stroke-width="1"/>
  <line x1="138.0" y1="200.0" x2="169.0" y2="146.3" stroke="#8f7a4d" stroke-width="1"/>
  <line x1="169.0" y1="146.3" x2="231.0" y2="146.3" stroke="#8f7a4d" stroke-width="1"/>
  <line x1="231.0" y1="146.3" x2="262.0" y2="200.0" stroke="#8f7a4d" stroke-width="1"/>
  <line x1="262.0" y1="200.0" x2="231.0" y2="253.7" stroke="#8f7a4d" stroke-width="1"/>
  <line x1="270.0" y1="200.0" x2="282.0" y2="200.0" stroke="#8f7a4d" stroke-width="1"/>
  <line x1="260.6" y1="235.0" x2="271.0" y2="241.0" stroke="#8f7a4d" stroke-width="1"/>
  <line x1="235.0" y1="260.6" x2="241.0" y2="271.0" stroke="#8f7a4d" stroke-width="1"/>
  <line x1="200.0" y1="270.0" x2="200.0" y2="282.0" stroke="#8f7a4d" stroke-width="1"/>
  <line x1="165.0" y1="260.6" x2="159.0" y2="271.0" stroke="#8f7a4d" stroke-width="1"/>
  <line x1="139.4" y1="235.0" x2="129.0" y2="241.0" stroke="#8f7a4d" stroke-width="1"/>
  <line x1="130.0" y1="200.0" x2="118.0" y2="200.0" stroke="#8f7a4d" stroke-width="1"/>
  <line x1="139.4" y1="165.0" x2="129.0" y2="159.0" stroke="#8f7a4d" stroke-width="1"/>
  <line x1="165.0" y1="139.4" x2="159.0" y2="129.0" stroke="#8f7a4d" stroke-width="1"/>
  <line x1="200.0" y1="130.0" x2="200.0" y2="118.0" stroke="#8f7a4d" stroke-width="1"/>
  <line x1="235.0" y1="139.4" x2="241.0" y2="129.0" stroke="#8f7a4d" stroke-width="1"/>
  <line x1="260.6" y1="165.0" x2="271.0" y2="159.0" stroke="#8f7a4d" stroke-width="1"/>
  <circle cx="200" cy="200" r="8" fill="none" stroke="#8f7a4d" stroke-width="1.2"/>
  <polygon points="200,182 218,200 200,218 182,200" fill="none" stroke="#8f7a4d" stroke-width="1"/>
</svg>